<svg xmlns="http://www.w3.org/2000/svg" version="1.1" xmlns:xlink="http://www.w3.org/1999/xlink" xmlns:svgjs="http://svgjs.dev/svgjs" width="1000" height="623" viewBox="0 0 1000 623"><g transform="matrix(1,0,0,1,-0.6060606060606233,0.2522267206477409)"><svg viewBox="0 0 396 247" data-background-color="#ffffff" preserveAspectRatio="xMidYMid meet" height="623" width="1000" xmlns="http://www.w3.org/2000/svg" xmlns:xlink="http://www.w3.org/1999/xlink"><g id="tight-bounds" transform="matrix(1,0,0,1,0.2400000000000091,-0.09999999999999432)"><svg viewBox="0 0 395.52 247.2" height="247.2" width="395.52"><g><svg></svg></g><g><svg viewBox="0 0 395.52 247.2" height="247.2" width="395.52"><g transform="matrix(1,0,0,1,79.50371559633028,47.215199999999996)"><svg viewBox="0 0 236.51256880733942 152.7696" height="152.7696" width="236.51256880733942"><g><svg viewBox="0 0 236.51256880733942 152.7696" height="152.7696" width="236.51256880733942"><g><svg viewBox="0 0 236.51256880733942 152.7696" height="152.7696" width="236.51256880733942"><g><svg viewBox="0 0 236.51256880733942 152.7696" height="152.7696" width="236.51256880733942"><g id="textblocktransform"><svg viewBox="0 0 236.51256880733942 152.7696" height="152.7696" width="236.51256880733942" id="textblock"><g><svg viewBox="0 0 236.51256880733942 152.7696" height="152.7696" width="236.51256880733942"><g transform="matrix(1,0,0,1,0,0)"><svg width="236.51256880733942" viewBox="3.950000047683716 -21.799999237060547 33.75 21.799999237060547" height="152.7696" data-palette-color="#ffffff"><path d="M3.95-20.95L8.55-20.95 9-16.45 8.8-16.8Q10-19.15 12.1-20.48 14.2-21.8 16.95-21.8L16.95-21.8Q18.65-21.8 20.03-21.25 21.4-20.7 22.3-19.7 23.2-18.7 23.45-17.2L23.45-17.2 23.2-17.05Q24.45-19.25 26.53-20.53 28.6-21.8 30.95-21.8L30.95-21.8Q34-21.8 35.83-20.05 37.65-18.3 37.7-15.55L37.7-15.55 37.7 0 32.6 0 32.6-13.6Q32.55-15.15 31.88-16.2 31.2-17.25 29.5-17.35L29.5-17.35Q27.7-17.35 26.33-16.25 24.95-15.15 24.2-13.4 23.45-11.65 23.4-9.65L23.4-9.65 23.4 0 18.25 0 18.25-13.6Q18.2-15.15 17.5-16.2 16.8-17.25 15.05-17.35L15.05-17.35Q13.25-17.35 11.9-16.25 10.55-15.15 9.83-13.38 9.1-11.6 9.1-9.65L9.1-9.65 9.1 0 3.95 0 3.95-20.95Z" opacity="1" transform="matrix(1,0,0,1,0,0)" fill="#ffffff" class="wordmark-text-0" data-fill-palette-color="primary" id="text-0"></path></svg></g></svg></g></svg></g></svg></g></svg></g></svg></g></svg></g><g><path d="M241.856 0c68.262 0 123.6 55.338 123.6 123.6 0 68.262-55.338 123.6-123.6 123.6-30.402 0-58.24-10.976-79.768-29.183l11.147 0c19.26 14.022 42.974 22.294 68.621 22.295 64.458 0 116.712-52.254 116.712-116.712 0-64.458-52.254-116.712-116.712-116.712-25.647 0-49.361 8.272-68.621 22.295l-11.147 0c21.528-18.206 49.366-29.183 79.768-29.183z" fill="#ff4136" stroke="transparent" data-fill-palette-color="tertiary"></path></g></svg></g><defs></defs></svg><rect width="395.52" height="247.2" fill="none" stroke="none" visibility="hidden"></rect></g></svg></g></svg>